PathFileType	4	(X/Y/Z)	C:\Users\Admin\Desktop\Capture Files\05302019 Reflex Trials\StaticTrial_2-Unnamed.trc
DataRate	CameraRate	NumFrames	NumMarkers	Units	OrigDataRate	OrigDataStartFrame	OrigNumFrames
300.00	300.00	      16	0	mm	300.00	1862	      2482
Frame#	Time	
		

1862	6.203	579.64740	-625.26501	918.32831	816.33740	-768.66083	1022.82520	498.15146	-500.61121	875.08936	863.74902	-846.33777	1276.03308	431.60983	-313.16830	456.55472	180.22897	-511.71872	612.15076	157.41832	-527.38489	410.59021	892.83508	-728.00421	1115.27576	290.97958	-498.40320	730.95306				183.41890	-588.42096	725.85138	370.81528	-426.40308	715.69165	499.61740	-365.66589	740.06982				428.24600	-327.93063	640.79382	
1863	6.207	579.65204	-625.26660	918.31006	816.39789	-768.71252	1022.79517	498.11545	-500.57544	875.08710	863.76514	-846.21783	1275.98181	431.60333	-313.15170	456.54651	180.21133	-511.71185	612.14215	157.42226	-527.38452	410.56613				290.97736	-498.40982	730.95203	892.60809	-727.79559	1115.14368	183.41833	-588.42639	725.83136	370.81256	-426.36850	715.68237	499.62576	-365.65808	740.06763				428.24963	-327.92554	640.78705	
1864	6.210	579.64606	-625.23438	918.30792	816.39020	-768.61121	1022.80194	498.10571	-500.56912	875.09460	863.87946	-846.37457	1275.96167	431.62405	-313.14563	456.51474	180.21712	-511.70389	612.13513	157.42105	-527.37207	410.53705				290.99149	-498.38968	730.93060	892.62494	-727.78912	1115.12964	183.41846	-588.44489	725.80841	370.81268	-426.34259	715.67755	499.60693	-365.65067	740.05658				428.23123	-327.92419	640.76782	
1865	6.213	579.62903	-625.20795	918.32184	816.50085	-768.64148	1022.77588	498.11774	-500.56564	875.07263	863.60553	-845.91943	1275.92590	431.60623	-313.12436	456.50116	180.21725	-511.70724	612.09509	157.44632	-527.39532	410.52094				290.97189	-498.38333	730.91785	892.92645	-728.00537	1115.25354	183.41418	-588.41711	725.80841	370.81631	-426.35699	715.65625	499.61880	-365.62335	740.04761				428.25098	-327.90619	640.76794	
1866	6.217	579.61334	-625.21222	918.31000	816.47144	-768.62360	1022.74048	498.11154	-500.54459	875.06036	863.86279	-846.32764	1275.95374	431.59839	-313.13657	456.49710	180.23499	-511.70587	612.07324	157.45123	-527.41113	410.51096				290.96259	-498.36337	730.88446	892.93170	-727.98431	1115.24426	183.43088	-588.40857	725.78552	370.81787	-426.34546	715.64661	499.61270	-365.61487	740.03070				428.31589	-327.95877	640.74084	
1867	6.220	579.61578	-625.20239	918.30029	816.48425	-768.57184	1022.72937	498.09363	-500.53320	875.05621	863.83295	-846.27454	1275.90479	431.59207	-313.10898	456.50027	180.21754	-511.69498	612.05438	157.44394	-527.39685	410.48547				290.95309	-498.37402	730.87115	892.93121	-727.93298	1115.21045	183.41391	-588.40906	725.75201	370.79047	-426.33115	715.63135	499.58145	-365.59799	740.02167				428.23138	-327.88986	640.73718	
1868	6.223	579.60046	-625.16156	918.29706	816.46887	-768.56647	1022.71906	498.08429	-500.50531	875.05383	863.65076	-845.94879	1275.85828	431.57797	-313.09940	456.47144	180.23241	-511.70819	612.03033	157.43811	-527.38550	410.46402	892.78284	-727.81921	1115.07947	290.94962	-498.34781	730.87927				183.42854	-588.40448	725.74506	370.77780	-426.32159	715.62506	499.59384	-365.59695	740.01514				428.21887	-327.88330	640.71448	
1869	6.227	579.59698	-625.15942	918.30914	816.53394	-768.54736	1022.68744	498.07187	-500.50314	875.04730	863.68890	-846.02820	1275.86377	431.58414	-313.09357	456.47675	180.21011	-511.70731	612.02045	157.44748	-527.39252	410.44873	892.71753	-727.73212	1115.05676	290.97675	-498.36078	730.86090				183.40868	-588.39648	725.73755	370.79150	-426.31580	715.60626	499.58188	-365.57779	740.00073				428.29816	-327.93579	640.70660	
1870	6.230	579.59973	-625.15442	918.29150	816.49866	-768.52057	1022.68152	498.07520	-500.50363	875.04340	863.62921	-845.95270	1275.78833	431.55341	-313.08041	456.45883	180.20396	-511.68887	611.99237	157.45355	-527.40735	410.42499	892.68250	-727.71155	1115.04260	290.94876	-498.36292	730.84167				183.39662	-588.39093	725.71674	370.77390	-426.28577	715.60455	499.56906	-365.58405	739.99786				428.20065	-327.84879	640.70374	
1871	6.233	579.56366	-625.11542	918.27075	816.61017	-768.53931	1022.67828	498.04388	-500.47379	875.02631	863.71893	-846.04303	1275.85681	431.57166	-313.06851	456.45145	180.19612	-511.69659	611.98175	157.45055	-527.40228	410.42435	892.76093	-727.74274	1115.04797	290.93686	-498.34018	730.82758				183.39917	-588.39301	725.68500	370.77130	-426.29330	715.57330	499.56100	-365.56842	739.99597				428.26456	-327.91464	640.68280	
1872	6.237	579.56824	-625.11987	918.28040	816.56110	-768.47345	1022.69250	498.05594	-500.47256	875.00165	863.72192	-845.98328	1275.78027	431.55191	-313.07568	456.44693	180.20221	-511.65915	611.95221	157.47437	-527.42859	410.38651	892.77142	-727.68652	1115.04260	290.93918	-498.32758	730.80896				183.41019	-588.39899	725.69025	370.76169	-426.29495	715.57782	499.55069	-365.55627	739.97363				428.19046	-327.83304	640.68469	
1873	6.240	579.55914	-625.11798	918.26764	816.64948	-768.51270	1022.65613	498.03958	-500.44809	874.99719	863.67554	-845.97589	1275.77368	431.52881	-313.07361	456.40979	180.20741	-511.69775	611.93994	157.45450	-527.40314	410.37711	892.78717	-727.68347	1115.02808	290.94781	-498.33966	730.79926				183.40504	-588.38373	725.67023	370.74759	-426.28458	715.57507	499.52759	-365.55176	739.96741				428.23929	-327.89706	640.65637	
1874	6.243	579.54236	-625.10767	918.25391	816.63959	-768.48663	1022.62671	498.03406	-500.43854	875.01227	863.44586	-845.54254	1275.70642	431.53180	-313.05811	456.41406	180.19099	-511.69406	611.92712	157.47336	-527.41022	410.34943	892.80273	-727.63708	1115.01355	290.93491	-498.32837	730.77899				183.39908	-588.38928	725.65839	370.75772	-426.28217	715.56049	499.53128	-365.54272	739.96509				428.16150	-327.81488	640.65833	
1875	6.247	579.53760	-625.07220	918.27356	816.69684	-768.46228	1022.62195	498.00601	-500.42236	874.99969	863.66272	-845.87567	1275.72803	431.54532	-313.04941	456.41647	180.20456	-511.70972	611.89343	157.47903	-527.47455	410.32333	892.86737	-727.68616	1114.98938	290.90320	-498.31702	730.76453				183.38503	-588.38525	725.63947	370.73907	-426.27643	715.54797	499.52631	-365.53735	739.96118				428.15613	-327.80200	640.64746	
1876	6.250	579.51782	-625.05493	918.26807	816.63806	-768.45490	1022.59717	497.99994	-500.44910	874.98260	863.69019	-845.91693	1275.70972	431.51715	-313.02280	456.40842	180.19778	-511.69284	611.89911	157.48944	-527.46942	410.32245	892.82758	-727.62463	1115.00757	290.92429	-498.32053	730.76599				183.38229	-588.37634	725.62305	370.73508	-426.25278	715.53809	499.51407	-365.52319	739.95679				428.13223	-327.80240	640.64789	
1877	6.253	579.52966	-625.05664	918.28290	816.68726	-768.42529	1022.59100	497.97925	-500.40079	874.98395	863.57294	-845.69226	1275.66077	431.48825	-313.02356	456.40634	180.20168	-511.70239	611.88330	157.49512	-527.45612	410.29971	892.76678	-727.52667	1114.97986	290.88449	-498.30038	730.73840				183.37328	-588.38129	725.61792	370.72562	-426.26505	715.53412	499.49289	-365.51715	739.93158				428.14890	-327.81323	640.61707	
